<?xml version="1.0" encoding="iso-8859-1"?>
<!-- Generator: Adobe Illustrator 19.0.0, SVG Export Plug-In . SVG Version: 6.00 Build 0)  -->
<svg xmlns="http://www.w3.org/2000/svg" xmlns:xlink="http://www.w3.org/1999/xlink" version="1.1" id="Layer_1" x="0px" y="0px" viewBox="0 0 427.7 427.7" style="enable-background:new 0 0 427.7 427.7;" xml:space="preserve" width="512" height="512">
<g id="_x31_0._Masks_1_">
	<g>
		<g id="XMLID_11_">
			<g>
				<g>
					<path style="fill:#8ECAC1;" d="M261.74,256.235c9.29-34.07,14.53-72.67,14.53-113.57c0-8.31-0.22-16.52-0.65-24.62       c-0.56-10.78-12-17.46-21.66-12.64c-30.18,15.09-63.66,24.2-99.02,25.86c-2.3-18.37-3.51-37.52-3.51-57.2       c0-8.31,0.22-16.52,0.65-24.61c0.56-10.79,12-17.47,21.66-12.64c33.52,16.75,71.11,26.15,110.83,26.15       c39.71,0,77.3-9.4,110.82-26.15c9.66-4.83,21.1,1.85,21.66,12.64c0.43,8.09,0.65,16.3,0.65,24.61       c0,137.97-59.61,249.81-133.13,249.81c-15,0-29.43-4.66-42.89-13.25C249.58,294.325,256.35,276.045,261.74,256.235z"/>
				</g>
				<g>
					<path style="fill:#FF7124;" d="M275.62,118.045c0.43,8.1,0.65,16.31,0.65,24.62c0,40.9-5.24,79.5-14.53,113.57       c-5.39,19.81-12.16,38.09-20.06,54.39c-24.35,50.28-59.49,81.85-98.55,81.85C69.61,392.475,10,280.625,10,142.665       c0-8.31,0.22-16.52,0.65-24.62c0.56-10.78,12-17.46,21.66-12.64c33.52,16.76,71.11,26.15,110.82,26.15       c3.96,0,7.9-0.09,11.81-0.29c35.36-1.66,68.84-10.77,99.02-25.86C263.62,100.585,275.06,107.265,275.62,118.045z"/>
				</g>
			</g>
			<g>
				<g>
					<path style="fill:#5E2A41;" d="M284.57,333.875c-16.62,0-32.86-4.986-48.269-14.82c-4.656-2.971-6.021-9.153-3.05-13.81       c2.97-4.655,9.153-6.021,13.81-3.05c12.144,7.75,24.764,11.68,37.51,11.68c31.688,0,61.985-24.104,85.31-67.869       c24.389-45.762,37.82-106.825,37.82-171.94c0-8.035-0.214-16.137-0.636-24.08c-0.123-2.361-1.604-3.564-2.476-4.073       c-0.868-0.505-2.637-1.197-4.727-0.152c-36.127,18.053-74.916,27.205-115.292,27.205c-40.383,0-79.176-9.152-115.3-27.204       c-2.091-1.047-3.861-0.354-4.729,0.151c-0.872,0.509-2.353,1.712-2.475,4.062c-0.422,7.946-0.636,16.048-0.636,24.092       c0,18.938,1.155,37.765,3.432,55.957c0.686,5.48-3.2,10.479-8.68,11.165c-5.476,0.682-10.479-3.201-11.165-8.681       c-2.38-19.013-3.587-38.676-3.587-58.441c0-8.396,0.224-16.855,0.664-25.142c0.438-8.439,5.066-16.03,12.378-20.291       c7.305-4.257,16.18-4.542,23.741-0.762c33.321,16.65,69.106,25.094,106.358,25.094c37.246,0,73.027-8.443,106.35-25.095       c7.559-3.779,16.434-3.495,23.739,0.763c7.312,4.261,11.939,11.852,12.378,20.304c0.44,8.283,0.663,16.742,0.663,25.129       c0,68.338-14.266,132.741-40.17,181.347C360.564,306.01,323.999,333.875,284.57,333.875z"/>
				</g>
				<g>
					<path style="fill:#5E2A41;" d="M337.37,158.246c-14.795,0-27.968-8.852-33.559-22.552c-2.087-5.113,0.367-10.95,5.48-13.037       c5.113-2.086,10.951,0.366,13.037,5.48c2.506,6.141,8.41,10.108,15.041,10.108c6.631,0,12.53-3.965,15.028-10.101       c2.083-5.114,7.918-7.573,13.032-5.491c5.115,2.082,7.574,7.917,5.491,13.032C365.343,149.39,352.173,158.246,337.37,158.246z"/>
				</g>
				<g>
					<path style="fill:#5E2A41;" d="M308.039,267.086c-3.095,0-6.146-1.432-8.102-4.128c-3.554-4.898-9.302-7.823-15.376-7.823       c-5.884,0-11.332,2.647-14.945,7.265c-3.404,4.349-9.689,5.115-14.038,1.71c-4.349-3.404-5.115-9.689-1.71-14.038       c7.431-9.492,18.618-14.936,30.694-14.936c12.46,0,24.26,6.011,31.564,16.077c3.244,4.471,2.249,10.724-2.221,13.967       C312.129,266.466,310.074,267.086,308.039,267.086z"/>
				</g>
				<g>
					<path style="fill:#5E2A41;" d="M143.13,402.475c-39.428,0-75.994-27.866-102.96-78.467C14.266,275.402,0,210.999,0,142.665       c0-8.384,0.223-16.846,0.664-25.149c0.438-8.434,5.062-16.02,12.369-20.281c7.303-4.26,16.178-4.55,23.742-0.777       c33.31,16.655,69.09,25.098,106.355,25.098c3.908,0,7.71-0.093,11.299-0.277c0.014,0,0.028-0.001,0.042-0.002       c33.236-1.56,65.204-9.908,95.017-24.814c7.57-3.777,16.445-3.486,23.749,0.773c7.307,4.262,11.931,11.848,12.37,20.292       c0.44,8.284,0.664,16.746,0.664,25.139c0,40.89-5.007,79.985-14.882,116.201c-5.513,20.259-12.48,39.142-20.709,56.12       c-12.967,26.776-28.542,47.988-46.289,63.044C185.271,394.25,164.661,402.475,143.13,402.475z M25.629,113.81       c-1.093,0-1.98,0.387-2.519,0.701c-0.872,0.508-2.352,1.711-2.474,4.053C20.214,126.529,20,134.633,20,142.665       c0,65.112,13.431,126.174,37.82,171.937c23.326,43.768,53.623,67.873,85.31,67.873c33.456,0,66.095-27.776,89.55-76.208       c7.691-15.869,14.221-33.585,19.411-52.657c9.409-34.506,14.179-71.831,14.179-110.944c0-8.041-0.214-16.146-0.636-24.09       c-0.123-2.354-1.603-3.557-2.474-4.064c-0.871-0.508-2.643-1.202-4.735-0.157c-32.311,16.155-66.968,25.207-103.002,26.899       c-3.919,0.2-8.056,0.302-12.293,0.302c-40.397,0-79.188-9.153-115.292-27.205C27.045,113.955,26.298,113.81,25.629,113.81z"/>
				</g>
				<g>
					<path style="fill:#5E2A41;" d="M220.233,226.848c-3.948,0-7.688-2.354-9.267-6.235c-2.497-6.141-8.396-10.107-15.027-10.107       c-6.631,0-12.535,3.971-15.04,10.115c-2.085,5.115-7.921,7.569-13.035,5.484c-5.114-2.085-7.57-7.921-5.484-13.035       c5.589-13.707,18.762-22.564,33.559-22.564c14.807,0,27.977,8.86,33.553,22.572c2.081,5.116-0.38,10.95-5.496,13.031       C222.764,226.61,221.488,226.848,220.233,226.848z"/>
				</g>
				<g>
					<path style="fill:#5E2A41;" d="M65.456,226.848c-1.254,0-2.53-0.238-3.764-0.739c-5.116-2.081-7.577-7.915-5.496-13.031       c5.576-13.712,18.747-22.572,33.553-22.572c14.798,0,27.971,8.857,33.56,22.564c2.085,5.114-0.37,10.95-5.484,13.035       c-5.113,2.085-10.95-0.37-13.035-5.484c-2.505-6.145-8.409-10.115-15.04-10.115c-6.631,0-12.53,3.967-15.027,10.107       C73.145,224.495,69.404,226.848,65.456,226.848z"/>
				</g>
				<g>
					<path style="fill:#5E2A41;" d="M143.13,335.685c-12.454,0-24.25-6.01-31.554-16.076c-3.244-4.471-2.249-10.724,2.221-13.967       c4.47-3.243,10.724-2.249,13.966,2.221c3.554,4.898,9.298,7.822,15.366,7.822c6.075,0,11.823-2.924,15.376-7.821       c3.243-4.47,9.497-5.465,13.966-2.222c4.471,3.242,5.465,9.496,2.222,13.966C167.391,329.675,155.591,335.685,143.13,335.685z"/>
				</g>
			</g>
		</g>
	</g>
</g>















</svg>
